<svg version="1.1" id="Layer_1" xmlns="http://www.w3.org/2000/svg" xmlns:xlink="http://www.w3.org/1999/xlink" x="0px" y="0px"
	 width="100%" viewBox="0 0 186 186" enable-background="new 0 0 186 186" xml:space="preserve">
<path fill="#F7BB59" opacity="1.000000" stroke="none" 
	d="
M187.000000,75.000000 
	C187.000000,87.354225 187.000000,99.708458 186.660110,112.235466 
	C185.902557,112.898308 185.208801,113.337418 185.107605,113.885864 
	C182.505829,127.987053 176.356506,140.511780 167.583038,151.663315 
	C163.912384,156.328903 159.131454,160.120972 154.811920,163.889008 
	C154.313232,161.375397 154.214432,159.117584 153.334778,157.222122 
	C150.856888,151.882721 145.858917,149.541794 141.640671,151.840485 
	C137.982834,153.833817 134.634689,156.395462 130.984619,158.815353 
	C134.138870,164.296890 137.192902,169.604309 140.069885,175.242310 
	C136.163162,177.200912 132.433502,178.828918 128.843140,180.065979 
	C129.662766,178.945923 130.404221,178.264252 131.013062,177.479675 
	C134.027267,173.595352 133.751312,167.582916 130.439514,164.192429 
	C127.283783,160.961731 121.742836,160.541245 117.570930,163.215881 
	C113.417862,165.878433 112.182716,170.673035 114.276466,175.465988 
	C116.926659,181.532730 122.039360,181.380600 127.148560,181.158615 
	C122.777016,182.676056 118.596855,183.785446 114.475319,185.081268 
	C113.844788,185.279510 113.485001,186.338898 113.000000,187.000000 
	C100.645775,187.000000 88.291542,187.000000 75.759766,186.693237 
	C74.040710,185.631897 72.499214,184.877319 70.971176,183.894653 
	C70.984634,183.666580 71.010895,183.210449 71.386261,183.151581 
	C73.293739,178.383179 75.243217,173.749130 76.116501,168.920456 
	C76.396927,167.369873 74.227707,164.432877 72.495064,163.656021 
	C68.772247,161.986816 64.604614,161.309692 59.711113,159.979660 
	C58.246429,166.417816 56.837959,172.608841 55.051086,178.861710 
	C50.769562,176.660477 46.866440,174.397400 43.378670,172.106689 
	C48.697269,172.519165 52.061337,170.367416 54.298115,166.061325 
	C55.523521,163.702286 56.878696,161.382446 58.427017,159.225586 
	C61.172153,155.401566 60.215385,153.291290 55.440792,152.360641 
	C53.274990,155.908386 51.060234,159.414627 48.974033,162.995743 
	C47.543541,165.451309 45.742466,167.042206 42.913456,165.428482 
	C39.998844,163.765961 40.675629,161.308670 42.084202,158.959579 
	C44.290634,155.279922 46.552593,151.633560 48.958439,147.699326 
	C47.062359,146.584900 45.554550,145.698685 42.734970,144.041473 
	C39.668732,151.435349 36.859741,158.208908 33.708054,164.914734 
	C31.953381,163.774216 30.389683,162.851959 29.152811,161.605423 
	C16.250700,148.602585 7.284941,133.357239 2.952055,115.465927 
	C2.727969,114.540642 1.669826,113.817345 0.999998,113.000000 
	C1.000000,100.645775 1.000000,88.291542 1.339882,75.764542 
	C2.712404,72.593636 3.844463,69.625526 4.760334,66.592148 
	C8.561037,54.004211 14.818182,42.902893 23.439524,32.885433 
	C32.406807,22.466017 42.850285,14.390512 55.436226,9.576992 
	C54.204922,13.245749 52.719063,16.467411 52.041248,19.850946 
	C49.561878,32.227505 51.366337,44.449638 54.930458,56.273495 
	C57.778896,65.723091 61.899296,74.789268 65.610420,84.428986 
	C64.513802,85.356995 62.884071,86.748291 61.241493,88.124260 
	C45.744034,101.106239 44.743008,122.114395 58.939220,136.493896 
	C74.149193,151.900253 101.888290,154.856018 120.886360,143.094742 
	C143.842178,128.883316 145.710648,103.523834 124.949150,86.414230 
	C122.403145,84.316063 122.593628,82.802498 124.084358,80.171822 
	C132.442841,65.421616 136.888519,49.442513 136.898697,32.539524 
	C136.903214,25.034597 134.991165,17.528519 134.324570,10.017679 
	C142.832489,15.539471 151.780487,20.184145 158.921295,26.784100 
	C172.269608,39.121368 180.739853,54.744984 185.046967,72.520248 
	C185.272263,73.449989 186.329880,74.178047 187.000000,75.000000 
M98.202866,175.689926 
	C100.253998,175.579346 102.305138,175.468765 104.529793,175.348831 
	C104.845177,178.803268 105.097694,181.569077 105.391663,184.788940 
	C107.356079,184.702835 109.046654,184.628738 111.281548,184.530777 
	C110.739075,176.219360 110.236191,168.514465 109.703506,160.352936 
	C107.435303,160.688705 105.858887,160.922073 103.884323,161.214371 
	C103.884323,164.224213 103.884323,166.975464 103.884323,169.812271 
	C101.182457,170.125336 98.909134,170.388763 96.163788,170.706863 
	C95.602287,167.740540 95.066086,164.907867 94.480614,161.814896 
	C92.616478,162.000031 91.027687,162.157806 89.015663,162.357635 
	C89.403358,168.766953 89.830460,174.861206 90.123421,180.961899 
	C90.379974,186.304565 91.089874,186.764679 95.798592,184.899460 
	C96.369850,181.667206 96.880363,178.778687 98.202866,175.689926 
M86.549789,169.423096 
	C87.192574,166.995911 86.375519,165.304749 83.776054,165.523010 
	C82.566307,165.624588 80.595192,166.827637 80.450203,167.761353 
	C79.620018,173.107895 79.234894,178.523514 78.648933,184.416168 
	C81.025780,184.416168 82.848206,184.416168 84.748665,184.416168 
	C85.290230,179.412338 85.787979,174.813354 86.549789,169.423096 
M86.079842,158.062622 
	C84.421974,158.661469 82.693161,159.137085 81.189095,160.003067 
	C80.983093,160.121643 81.613434,162.894669 82.353561,163.189026 
	C83.647789,163.703735 86.111496,163.814590 86.655632,163.061615 
	C87.401718,162.029160 86.814140,160.032959 86.079842,158.062622 
z"/>
<path fill="#000000" opacity="1.000000" stroke="none" 
	d="
M55.552494,9.204183 
	C42.850285,14.390512 32.406807,22.466017 23.439524,32.885433 
	C14.818182,42.902893 8.561037,54.004211 4.760334,66.592148 
	C3.844463,69.625526 2.712404,72.593636 1.339882,75.295883 
	C1.000000,50.406464 1.000000,25.812923 1.000000,1.000000 
	C25.353788,1.000000 49.708237,1.000000 74.827095,1.334280 
	C72.677773,2.778706 69.764038,3.888853 66.464981,5.015662 
	C62.570599,6.422944 59.061546,7.813563 55.552494,9.204183 
z"/>
<path fill="#000000" opacity="1.000000" stroke="none" 
	d="
M113.468658,187.000000 
	C113.485001,186.338898 113.844788,185.279510 114.475319,185.081268 
	C118.596855,183.785446 122.777016,182.676056 127.338089,181.166931 
	C128.060059,180.704376 128.381958,180.580643 128.703842,180.456909 
	C132.433502,178.828918 136.163162,177.200912 140.411087,175.265778 
	C145.571350,171.409164 150.213348,167.859695 154.855331,164.310211 
	C159.131454,160.120972 163.912384,156.328903 167.583038,151.663315 
	C176.356506,140.511780 182.505829,127.987053 185.107605,113.885864 
	C185.208801,113.337418 185.902557,112.898308 186.660110,112.704124 
	C187.000000,137.593536 187.000000,162.187057 187.000000,187.000000 
	C162.646210,187.000000 138.291763,187.000000 113.468658,187.000000 
z"/>
<path fill="#000000" opacity="1.000000" stroke="none" 
	d="
M70.957726,184.122742 
	C72.499214,184.877319 74.040710,185.631897 75.291107,186.693237 
	C50.406464,187.000000 25.812923,187.000000 1.000000,187.000000 
	C1.000000,162.646210 1.000000,138.291763 0.999998,113.468658 
	C1.669826,113.817345 2.727969,114.540642 2.952055,115.465927 
	C7.284941,133.357239 16.250700,148.602585 29.152811,161.605423 
	C30.389683,162.851959 31.953381,163.774216 33.692787,164.917542 
	C34.020222,164.988083 34.013451,164.960342 34.056362,165.261780 
	C34.432594,165.787979 34.765915,166.012756 35.269447,166.516052 
	C37.947544,168.574509 40.455433,170.354416 42.963322,172.134338 
	C46.866440,174.397400 50.769562,176.660477 55.282776,179.077515 
	C56.884422,179.492188 57.875973,179.752914 59.043839,180.349396 
	C63.132679,181.831024 67.045204,182.976883 70.957726,184.122742 
z"/>
<path fill="#000000" opacity="1.000000" stroke="none" 
	d="
M187.000000,74.531342 
	C186.329880,74.178047 185.272263,73.449989 185.046967,72.520248 
	C180.739853,54.744984 172.269608,39.121368 158.921295,26.784100 
	C151.780487,20.184145 142.832489,15.539471 134.339813,10.015272 
	C133.979584,10.018148 133.988541,10.045501 133.927612,9.729654 
	C133.474319,9.339378 133.081970,9.264950 132.404022,8.962306 
	C128.433212,7.457053 124.747986,6.180015 120.870514,4.560389 
	C118.118851,3.145200 115.559425,2.072598 113.000000,0.999998 
	C137.593536,1.000000 162.187057,1.000000 187.000000,1.000000 
	C187.000000,25.353788 187.000000,49.708237 187.000000,74.531342 
z"/>
<path fill="#F7BB5B" opacity="1.000000" stroke="none" 
	d="
M112.531342,0.999998 
	C115.559425,2.072598 118.118851,3.145200 120.559235,4.716288 
	C116.560158,8.986096 111.370537,12.098408 109.072197,16.665676 
	C104.260391,26.227695 100.820953,36.501217 97.138809,46.599548 
	C95.838387,50.165981 95.473083,54.073383 94.680840,57.825108 
	C93.371231,57.273567 93.106148,56.748997 92.971199,56.192848 
	C91.210777,48.938152 90.001457,41.497337 87.602356,34.461781 
	C83.598755,22.720860 78.541756,11.447905 66.850304,4.999000 
	C69.764038,3.888853 72.677773,2.778706 75.295753,1.334280 
	C87.354225,1.000000 99.708458,1.000000 112.531342,0.999998 
z"/>
<path fill="#FEFCF8" opacity="1.000000" stroke="none" 
	d="
M66.464981,5.015662 
	C78.541756,11.447905 83.598755,22.720860 87.602356,34.461781 
	C90.001457,41.497337 91.210777,48.938152 92.971199,56.192848 
	C93.106148,56.748997 93.371231,57.273567 94.680840,57.825108 
	C95.473083,54.073383 95.838387,50.165981 97.138809,46.599548 
	C100.820953,36.501217 104.260391,26.227695 109.072197,16.665676 
	C111.370537,12.098408 116.560158,8.986096 120.751480,5.058875 
	C124.747986,6.180015 128.433212,7.457053 132.539093,9.233049 
	C133.302689,9.836506 133.645615,9.941003 133.988541,10.045500 
	C133.988541,10.045501 133.979584,10.018148 133.964325,10.020556 
	C134.991165,17.528519 136.903214,25.034597 136.898697,32.539524 
	C136.888519,49.442513 132.442841,65.421616 124.084358,80.171822 
	C122.593628,82.802498 122.403145,84.316063 124.949150,86.414230 
	C145.710648,103.523834 143.842178,128.883316 120.886360,143.094742 
	C101.888290,154.856018 74.149193,151.900253 58.939220,136.493896 
	C44.743008,122.114395 45.744034,101.106239 61.241493,88.124260 
	C62.884071,86.748291 64.513802,85.356995 65.610420,84.428986 
	C61.899296,74.789268 57.778896,65.723091 54.930458,56.273495 
	C51.366337,44.449638 49.561878,32.227505 52.041248,19.850946 
	C52.719063,16.467411 54.204922,13.245749 55.436226,9.576992 
	C59.061546,7.813563 62.570599,6.422944 66.464981,5.015662 
M59.719284,36.749733 
	C60.970703,51.745876 65.088448,65.796593 73.202278,78.605133 
	C76.588486,83.950615 75.620041,87.650391 70.377602,91.314209 
	C69.013351,92.267654 67.629257,93.210274 66.367722,94.290367 
	C54.950912,104.065170 54.070354,119.873810 64.320152,130.526413 
	C79.053368,145.838623 108.985474,145.935150 123.750999,130.718079 
	C132.413162,121.791023 133.767212,109.645111 126.675835,99.732536 
	C124.312454,96.428925 120.899033,93.799835 117.697960,91.190819 
	C113.317543,87.620567 111.915222,84.226013 114.664108,80.034439 
	C122.711861,67.763031 126.937485,54.161301 128.324295,39.795349 
	C129.015091,32.639355 128.382538,25.215406 127.301277,18.071175 
	C126.370903,11.923848 123.541130,11.296950 119.585899,15.963264 
	C116.715225,19.350040 114.139099,23.153286 112.218498,27.149048 
	C104.785599,42.613098 101.694832,58.972790 103.127609,76.121613 
	C103.482346,80.367462 102.155487,84.253761 98.158020,85.504959 
	C95.366966,86.378540 91.506981,85.946930 88.849152,84.632706 
	C85.035278,82.746849 84.737625,78.569420 85.151741,74.532211 
	C86.922493,57.268799 82.628410,41.181679 75.151657,25.859907 
	C72.647034,20.727295 69.844269,15.452514 63.363670,12.773145 
	C59.054352,20.134630 58.734192,27.874054 59.719284,36.749733 
M93.064087,72.938850 
	C93.159439,74.077888 93.254791,75.216934 93.350143,76.355972 
	C93.720688,76.333565 94.091232,76.311165 94.461777,76.288757 
	C94.461777,71.043137 94.461777,65.797516 94.461777,60.551895 
	C93.998276,60.544163 93.534782,60.536430 93.071281,60.528698 
	C93.071281,64.375313 93.071281,68.221931 93.064087,72.938850 
z"/>
<path fill="#FEFBF5" opacity="1.000000" stroke="none" 
	d="
M97.796867,175.790039 
	C96.880363,178.778687 96.369850,181.667206 95.798592,184.899460 
	C91.089874,186.764679 90.379974,186.304565 90.123421,180.961899 
	C89.830460,174.861206 89.403358,168.766953 89.015663,162.357635 
	C91.027687,162.157806 92.616478,162.000031 94.480614,161.814896 
	C95.066086,164.907867 95.602287,167.740540 96.163788,170.706863 
	C98.909134,170.388763 101.182457,170.125336 103.884323,169.812271 
	C103.884323,166.975464 103.884323,164.224213 103.884323,161.214371 
	C105.858887,160.922073 107.435303,160.688705 109.703506,160.352936 
	C110.236191,168.514465 110.739075,176.219360 111.281548,184.530777 
	C109.046654,184.628738 107.356079,184.702835 105.391663,184.788940 
	C105.097694,181.569077 104.845177,178.803268 104.529793,175.348831 
	C102.305138,175.468765 100.253998,175.579346 97.796867,175.790039 
z"/>
<path fill="#FEFBF5" opacity="1.000000" stroke="none" 
	d="
M43.378670,172.106689 
	C40.455433,170.354416 37.947544,168.574509 35.230690,166.186035 
	C34.685631,165.371765 34.349541,165.166061 34.013451,164.960342 
	C34.013451,164.960342 34.020222,164.988083 34.035484,164.985275 
	C36.859741,158.208908 39.668732,151.435349 42.734970,144.041473 
	C45.554550,145.698685 47.062359,146.584900 48.958439,147.699326 
	C46.552593,151.633560 44.290634,155.279922 42.084202,158.959579 
	C40.675629,161.308670 39.998844,163.765961 42.913456,165.428482 
	C45.742466,167.042206 47.543541,165.451309 48.974033,162.995743 
	C51.060234,159.414627 53.274990,155.908386 55.440792,152.360641 
	C60.215385,153.291290 61.172153,155.401566 58.427017,159.225586 
	C56.878696,161.382446 55.523521,163.702286 54.298115,166.061325 
	C52.061337,170.367416 48.697269,172.519165 43.378670,172.106689 
z"/>
<path fill="#FEFBF5" opacity="1.000000" stroke="none" 
	d="
M154.811920,163.889008 
	C150.213348,167.859695 145.571350,171.409164 140.588150,174.935181 
	C137.192902,169.604309 134.138870,164.296890 130.984619,158.815353 
	C134.634689,156.395462 137.982834,153.833817 141.640671,151.840485 
	C145.858917,149.541794 150.856888,151.882721 153.334778,157.222122 
	C154.214432,159.117584 154.313232,161.375397 154.811920,163.889008 
M141.730148,164.715164 
	C143.665070,164.617584 145.712402,164.844727 147.470367,164.236038 
	C148.040787,164.038544 148.490173,160.959534 147.886978,160.406128 
	C146.412094,159.052963 143.940598,157.262192 142.499878,157.703445 
	C139.199265,158.714294 139.432388,161.531509 141.730148,164.715164 
z"/>
<path fill="#FEFBF6" opacity="1.000000" stroke="none" 
	d="
M128.843140,180.065979 
	C128.381958,180.580643 128.060059,180.704376 127.548637,180.819794 
	C122.039360,181.380600 116.926659,181.532730 114.276466,175.465988 
	C112.182716,170.673035 113.417862,165.878433 117.570930,163.215881 
	C121.742836,160.541245 127.283783,160.961731 130.439514,164.192429 
	C133.751312,167.582916 134.027267,173.595352 131.013062,177.479675 
	C130.404221,178.264252 129.662766,178.945923 128.843140,180.065979 
M121.511017,175.033218 
	C124.558128,176.789230 126.487617,175.303101 126.809219,172.449524 
	C126.988388,170.859787 125.789299,168.769363 124.578033,167.517227 
	C123.992188,166.911621 120.777451,167.604736 120.748337,167.903976 
	C120.536263,170.083649 120.832024,172.312714 121.511017,175.033218 
z"/>
<path fill="#FEFBF5" opacity="1.000000" stroke="none" 
	d="
M58.867516,180.013641 
	C57.875973,179.752914 56.884422,179.492188 55.661182,179.015686 
	C56.837959,172.608841 58.246429,166.417816 59.711113,159.979660 
	C64.604614,161.309692 68.772247,161.986816 72.495064,163.656021 
	C74.227707,164.432877 76.396927,167.369873 76.116501,168.920456 
	C75.243217,173.749130 73.293739,178.383179 71.020203,182.998413 
	C69.527351,181.526001 68.216400,180.167465 68.167328,178.764786 
	C68.107140,177.044281 69.149658,175.299835 69.629471,173.542267 
	C70.304153,171.070862 71.054787,168.058945 67.593285,167.614838 
	C66.254448,167.443054 64.172028,169.796173 63.115196,171.440460 
	C61.401482,174.106766 60.254032,177.137024 58.867516,180.013641 
z"/>
<path fill="#FEFAF2" opacity="1.000000" stroke="none" 
	d="
M86.417763,169.818726 
	C85.787979,174.813354 85.290230,179.412338 84.748665,184.416168 
	C82.848206,184.416168 81.025780,184.416168 78.648933,184.416168 
	C79.234894,178.523514 79.620018,173.107895 80.450203,167.761353 
	C80.595192,166.827637 82.566307,165.624588 83.776054,165.523010 
	C86.375519,165.304749 87.192574,166.995911 86.417763,169.818726 
z"/>
<path fill="#F7BE63" opacity="1.000000" stroke="none" 
	d="
M59.043831,180.349396 
	C60.254032,177.137024 61.401482,174.106766 63.115196,171.440460 
	C64.172028,169.796173 66.254448,167.443054 67.593285,167.614838 
	C71.054787,168.058945 70.304153,171.070862 69.629471,173.542267 
	C69.149658,175.299835 68.107140,177.044281 68.167328,178.764786 
	C68.216400,180.167465 69.527351,181.526001 70.644836,183.057281 
	C71.010895,183.210449 70.984634,183.666580 70.971176,183.894653 
	C67.045204,182.976883 63.132679,181.831024 59.043831,180.349396 
z"/>
<path fill="#FEFAF2" opacity="1.000000" stroke="none" 
	d="
M86.438972,158.256195 
	C86.814140,160.032959 87.401718,162.029160 86.655632,163.061615 
	C86.111496,163.814590 83.647789,163.703735 82.353561,163.189026 
	C81.613434,162.894669 80.983093,160.121643 81.189095,160.003067 
	C82.693161,159.137085 84.421974,158.661469 86.438972,158.256195 
z"/>
<path fill="#F7BB59" opacity="1.000000" stroke="none" 
	d="
M34.056358,165.261780 
	C34.349541,165.166061 34.685631,165.371765 35.060478,165.907501 
	C34.765915,166.012756 34.432594,165.787979 34.056358,165.261780 
z"/>
<path fill="#F7BB59" opacity="1.000000" stroke="none" 
	d="
M133.927612,9.729654 
	C133.645615,9.941003 133.302689,9.836506 132.824692,9.461266 
	C133.081970,9.264950 133.474319,9.339378 133.927612,9.729654 
z"/>
<path fill="#F7BB5B" opacity="1.000000" stroke="none" 
	d="
M59.703865,36.299435 
	C58.734192,27.874054 59.054352,20.134630 63.363670,12.773145 
	C69.844269,15.452514 72.647034,20.727295 75.151657,25.859907 
	C82.628410,41.181679 86.922493,57.268799 85.151741,74.532211 
	C84.737625,78.569420 85.035278,82.746849 88.849152,84.632706 
	C91.506981,85.946930 95.366966,86.378540 98.158020,85.504959 
	C102.155487,84.253761 103.482346,80.367462 103.127609,76.121613 
	C101.694832,58.972790 104.785599,42.613098 112.218498,27.149048 
	C114.139099,23.153286 116.715225,19.350040 119.585899,15.963264 
	C123.541130,11.296950 126.370903,11.923848 127.301277,18.071175 
	C128.382538,25.215406 129.015091,32.639355 128.324295,39.795349 
	C126.937485,54.161301 122.711861,67.763031 114.664108,80.034439 
	C111.915222,84.226013 113.317543,87.620567 117.697960,91.190819 
	C120.899033,93.799835 124.312454,96.428925 126.675835,99.732536 
	C133.767212,109.645111 132.413162,121.791023 123.750999,130.718079 
	C108.985474,145.935150 79.053368,145.838623 64.320152,130.526413 
	C54.070354,119.873810 54.950912,104.065170 66.367722,94.290367 
	C67.629257,93.210274 69.013351,92.267654 70.377602,91.314209 
	C75.620041,87.650391 76.588486,83.950615 73.202278,78.605133 
	C65.088448,65.796593 60.970703,51.745876 59.703865,36.299435 
M87.531052,105.874153 
	C87.853050,104.937721 88.554276,103.937439 88.409851,103.079529 
	C88.182365,101.728172 87.386162,100.472549 86.830719,99.176414 
	C85.650276,99.797066 83.947197,100.113762 83.379120,101.090561 
	C80.807190,105.512932 80.999336,105.522598 77.712997,101.135155 
	C77.060715,100.264328 75.570343,100.021255 74.466446,99.488701 
	C73.936859,100.594612 72.675995,102.036743 73.003319,102.748688 
	C74.479485,105.959396 76.080933,109.243553 78.357010,111.879814 
	C79.089836,112.728600 82.375343,112.242561 83.858635,111.332794 
	C85.378006,110.400879 86.120071,108.201645 87.531052,105.874153 
M106.877319,104.811096 
	C106.410873,104.144684 106.046921,103.363876 105.456985,102.835289 
	C104.164963,101.677620 102.758362,100.647842 101.398560,99.565834 
	C101.067848,101.320457 99.873329,103.623032 100.572105,104.724594 
	C102.491180,107.749863 105.205009,110.270981 107.604317,112.991631 
	C110.045815,110.357872 112.528748,107.760445 114.895790,105.061386 
	C115.402802,104.483261 115.853943,103.448807 115.691856,102.779243 
	C115.389320,101.529434 114.839424,99.663246 113.983116,99.403625 
	C113.022491,99.112358 111.362839,100.060356 110.452972,100.933533 
	C109.272972,102.065956 108.533020,103.656906 106.877319,104.811096 
z"/>
<path fill="#FADDAB" opacity="1.000000" stroke="none" 
	d="
M93.067688,72.503700 
	C93.071281,68.221931 93.071281,64.375313 93.071281,60.528698 
	C93.534782,60.536430 93.998276,60.544163 94.461777,60.551895 
	C94.461777,65.797516 94.461777,71.043137 94.461777,76.288757 
	C94.091232,76.311165 93.720688,76.333565 93.350143,76.355972 
	C93.254791,75.216934 93.159439,74.077888 93.067688,72.503700 
z"/>
<path fill="#F8C066" opacity="1.000000" stroke="none" 
	d="
M141.467422,164.437500 
	C139.432388,161.531509 139.199265,158.714294 142.499878,157.703445 
	C143.940598,157.262192 146.412094,159.052963 147.886978,160.406128 
	C148.490173,160.959534 148.040787,164.038544 147.470367,164.236038 
	C145.712402,164.844727 143.665070,164.617584 141.467422,164.437500 
z"/>
<path fill="#F8C066" opacity="1.000000" stroke="none" 
	d="
M121.239174,174.779694 
	C120.832024,172.312714 120.536263,170.083649 120.748337,167.903976 
	C120.777451,167.604736 123.992188,166.911621 124.578033,167.517227 
	C125.789299,168.769363 126.988388,170.859787 126.809219,172.449524 
	C126.487617,175.303101 124.558128,176.789230 121.239174,174.779694 
z"/>
<path fill="#FEFAF3" opacity="1.000000" stroke="none" 
	d="
M87.366714,106.215637 
	C86.120071,108.201645 85.378006,110.400879 83.858635,111.332794 
	C82.375343,112.242561 79.089836,112.728600 78.357010,111.879814 
	C76.080933,109.243553 74.479485,105.959396 73.003319,102.748688 
	C72.675995,102.036743 73.936859,100.594612 74.466446,99.488701 
	C75.570343,100.021255 77.060715,100.264328 77.712997,101.135155 
	C80.999336,105.522598 80.807190,105.512932 83.379120,101.090561 
	C83.947197,100.113762 85.650276,99.797066 86.830719,99.176407 
	C87.386162,100.472549 88.182365,101.728172 88.409851,103.079529 
	C88.554276,103.937439 87.853050,104.937721 87.366714,106.215637 
z"/>
<path fill="#FEFAF4" opacity="1.000000" stroke="none" 
	d="
M107.240479,104.930786 
	C108.533020,103.656906 109.272972,102.065956 110.452972,100.933533 
	C111.362839,100.060356 113.022491,99.112358 113.983116,99.403625 
	C114.839424,99.663246 115.389320,101.529434 115.691856,102.779243 
	C115.853943,103.448807 115.402802,104.483261 114.895790,105.061386 
	C112.528748,107.760445 110.045815,110.357872 107.604309,112.991623 
	C105.205009,110.270981 102.491180,107.749863 100.572105,104.724594 
	C99.873329,103.623032 101.067848,101.320457 101.398560,99.565834 
	C102.758362,100.647842 104.164963,101.677620 105.456985,102.835289 
	C106.046921,103.363876 106.410873,104.144684 107.240479,104.930786 
z"/>
</svg>