<svg version="1.1" id="Layer_1" xmlns="http://www.w3.org/2000/svg" xmlns:xlink="http://www.w3.org/1999/xlink" x="0px" y="0px"
	 width="100%" viewBox="0 0 190 186" enable-background="new 0 0 190 186" xml:space="preserve">
<path fill="#F7BA59" opacity="1.000000" stroke="none" 
	d="
M1.000000,74.000000 
	C1.000000,49.333340 1.000000,25.166677 1.000000,1.000013 
	C64.333313,1.000009 127.666626,1.000009 190.999954,1.000004 
	C190.999969,62.999966 190.999969,124.999931 190.999985,186.999908 
	C127.666718,186.999939 64.333435,186.999939 1.000076,186.999969 
	C1.000000,149.500000 1.000000,112.000000 1.000000,74.000000 
M54.584442,17.234652 
	C50.048710,41.231068 57.015217,62.902374 68.309555,83.815742 
	C67.180367,84.770088 66.198212,85.640572 65.174637,86.459267 
	C45.262650,102.385765 46.303913,127.648712 67.516426,141.900162 
	C78.393028,149.207520 90.554604,151.446365 103.320572,149.797928 
	C116.545731,148.090210 127.877441,142.485596 135.707260,131.234451 
	C145.678741,116.905800 142.367569,98.741310 127.572243,86.897591 
	C124.885788,84.747070 124.108955,83.301170 126.094604,80.041374 
	C132.323029,69.816299 135.745041,58.473789 137.718445,46.747906 
	C139.580307,35.684681 140.417496,24.535164 136.586960,13.656446 
	C133.082916,3.704905 124.895538,1.642681 117.160805,8.746036 
	C115.097572,10.640853 113.294647,12.898511 111.708260,15.219292 
	C105.216774,24.715891 101.533440,35.378651 99.080238,46.521351 
	C98.255951,50.265381 97.448471,54.013123 96.633316,57.759167 
	C95.135002,56.160683 94.985313,54.576202 94.512161,53.095051 
	C91.232353,42.827888 88.641617,32.244717 84.274231,22.457056 
	C81.681816,16.647268 76.835724,11.437076 71.945259,7.169270 
	C66.719261,2.608652 60.843506,4.421637 57.285320,10.490625 
	C56.207657,12.328727 55.633213,14.461859 54.584442,17.234652 
M136.913391,165.625290 
	C140.301102,171.117142 143.688812,176.608978 147.322983,182.500351 
	C149.172684,181.315720 150.617203,180.390610 152.239594,179.351562 
	C150.517349,176.169067 149.041794,173.442413 147.446655,170.494766 
	C148.934113,170.202423 150.095947,170.115814 151.156158,169.741455 
	C156.056030,168.011322 157.900558,163.069412 155.677139,157.808655 
	C153.338531,152.275345 147.704346,149.500259 143.301346,152.005203 
	C139.802353,153.995850 136.559525,156.436783 132.932571,158.858337 
	C134.211456,161.028275 135.380707,163.012207 136.913391,165.625290 
M101.629715,175.535004 
	C107.165871,174.421432 106.808533,178.211746 107.180992,181.813446 
	C107.292610,182.892731 109.017471,184.568222 110.015228,184.576813 
	C110.999199,184.585251 112.870018,182.811661 112.851227,181.849213 
	C112.715919,174.918915 112.198898,167.996094 111.801605,161.047577 
	C102.214455,159.130890 108.070786,167.484039 105.044708,170.001892 
	C102.992043,170.186813 100.729820,170.390625 98.147163,170.623306 
	C97.635025,167.456955 97.176918,164.624649 96.686394,161.591949 
	C94.558937,161.908035 92.972191,162.143784 91.033081,162.431870 
	C91.542465,170.230484 92.035965,177.785919 92.560684,185.819351 
	C94.748566,185.617371 96.483009,185.457245 98.479340,185.272949 
	C98.340080,182.893524 97.881554,180.874893 98.232887,179.008743 
	C98.465431,177.773560 99.859474,176.757050 101.629715,175.535004 
M40.192833,153.691849 
	C39.580593,154.682541 38.905815,155.640427 38.366413,156.669312 
	C35.206623,162.696426 36.499779,167.410583 42.149235,170.590103 
	C47.470921,173.585175 52.335537,172.254501 55.779991,166.809311 
	C57.381092,164.278198 58.738979,161.578583 60.490799,159.160919 
	C63.089100,155.575012 62.322014,153.487732 57.486401,152.370575 
	C55.683807,155.314896 53.866486,158.433411 51.897633,161.453140 
	C50.230965,164.009369 48.795403,167.833786 44.746651,165.277512 
	C40.996319,162.909653 43.565441,160.080490 45.041889,157.546310 
	C46.870537,154.407639 48.732586,151.288422 50.833950,147.731247 
	C49.059772,146.665222 47.589691,145.781921 45.786217,144.698288 
	C43.880489,147.751572 42.224331,150.404999 40.192833,153.691849 
M78.406593,170.564087 
	C77.138847,168.225922 76.438339,164.831680 74.479744,163.779694 
	C70.915207,161.865112 66.603714,161.341202 62.113094,160.101517 
	C60.277035,166.230118 58.542259,172.020615 56.715939,178.116714 
	C58.937855,178.788589 60.468868,179.251556 62.396671,179.834503 
	C63.456081,176.524185 64.094543,173.383331 65.497299,170.632172 
	C66.192734,169.268250 68.293724,168.621002 69.758812,167.649506 
	C70.464661,169.258728 71.898613,170.952591 71.723465,172.459396 
	C71.368538,175.512787 70.142075,178.464874 69.295090,181.389099 
	C74.615868,183.851089 74.652367,183.862579 76.184937,178.995956 
	C76.982185,176.464294 77.624138,173.883713 78.406593,170.564087 
M115.320488,172.170502 
	C117.322197,178.792587 120.244957,181.376312 125.432007,181.109131 
	C130.342911,180.856171 134.226669,177.646133 134.979752,173.217667 
	C135.942413,167.556656 132.713791,162.598312 127.434723,161.630371 
	C121.016899,160.453659 116.323074,164.212128 115.320488,172.170502 
M81.429520,175.791855 
	C81.140335,178.525085 80.851143,181.258316 80.368248,185.822281 
	C83.445984,184.422119 86.502449,183.882980 86.714432,182.791458 
	C87.771881,177.346207 88.082115,171.755844 88.687805,165.901932 
	C86.513039,165.719971 84.915764,165.586349 82.844818,165.413086 
	C82.422997,168.791031 82.038223,171.872253 81.429520,175.791855 
M86.434540,157.675293 
	C85.292557,158.758026 83.792679,159.679581 83.194725,161.007324 
	C82.973160,161.499313 84.750816,163.577072 85.832764,163.780075 
	C86.939262,163.987656 88.310623,162.783508 89.566040,162.197342 
	C88.762871,160.706818 87.959702,159.216309 86.434540,157.675293 
z"/>
<path fill="#FEFCF8" opacity="1.000000" stroke="none" 
	d="
M54.706360,16.847252 
	C55.633213,14.461859 56.207657,12.328727 57.285320,10.490625 
	C60.843506,4.421637 66.719261,2.608652 71.945259,7.169270 
	C76.835724,11.437076 81.681816,16.647268 84.274231,22.457056 
	C88.641617,32.244717 91.232353,42.827888 94.512161,53.095051 
	C94.985313,54.576202 95.135002,56.160683 96.633316,57.759167 
	C97.448471,54.013123 98.255951,50.265381 99.080238,46.521351 
	C101.533440,35.378651 105.216774,24.715891 111.708260,15.219292 
	C113.294647,12.898511 115.097572,10.640853 117.160805,8.746036 
	C124.895538,1.642681 133.082916,3.704905 136.586960,13.656446 
	C140.417496,24.535164 139.580307,35.684681 137.718445,46.747906 
	C135.745041,58.473789 132.323029,69.816299 126.094604,80.041374 
	C124.108955,83.301170 124.885788,84.747070 127.572243,86.897591 
	C142.367569,98.741310 145.678741,116.905800 135.707260,131.234451 
	C127.877441,142.485596 116.545731,148.090210 103.320572,149.797928 
	C90.554604,151.446365 78.393028,149.207520 67.516426,141.900162 
	C46.303913,127.648712 45.262650,102.385765 65.174637,86.459267 
	C66.198212,85.640572 67.180367,84.770088 68.309555,83.815742 
	C57.015217,62.902374 50.048710,41.231068 54.706360,16.847252 
M76.888748,85.929764 
	C75.021149,87.960411 73.423485,90.357552 71.243065,91.963455 
	C54.474335,104.313713 55.087608,124.719360 72.886589,135.657700 
	C85.487625,143.401642 99.063095,144.429932 112.644058,138.894470 
	C117.868103,136.765182 123.084450,133.317337 126.849075,129.154312 
	C137.538025,117.334167 134.678024,101.897400 120.657822,91.732613 
	C114.986092,87.620560 113.856766,84.251671 117.166733,79.179672 
	C125.298599,66.718918 129.220764,52.795616 130.579575,38.287537 
	C131.247314,31.158144 130.036682,23.735174 128.820877,16.590591 
	C128.076675,12.217354 125.674515,11.803426 122.541809,14.926057 
	C120.440819,17.020290 118.191223,19.321735 117.071716,21.978624 
	C113.469986,30.526581 109.272751,39.050789 107.363976,48.022194 
	C105.383499,57.330639 105.655884,67.143158 105.228569,76.747932 
	C104.976509,82.413651 101.448334,86.603371 96.215790,86.653603 
	C91.038498,86.703316 87.075531,82.448868 87.100601,76.837784 
	C87.105064,75.839729 87.210876,74.841835 87.278145,73.844414 
	C88.561958,54.810287 84.106079,37.121689 74.163460,20.949141 
	C72.244095,17.827126 68.497459,15.828490 65.593750,13.311636 
	C64.291641,16.801725 62.147385,20.216679 61.828190,23.794460 
	C60.135056,42.772217 64.699501,60.411938 74.074326,76.932945 
	C75.490631,79.428879 76.064880,82.402634 76.888748,85.929764 
M97.041168,64.738533 
	C96.892891,63.408649 96.744614,62.078762 96.596344,60.748878 
	C96.241058,60.776253 95.885773,60.803627 95.530487,60.830997 
	C95.530487,65.913155 95.530487,70.995316 95.530487,76.077477 
	C96.032654,76.089890 96.534821,76.102310 97.036987,76.114723 
	C97.036987,72.613403 97.036987,69.112076 97.041168,64.738533 
z"/>
<path fill="#FEFBF6" opacity="1.000000" stroke="none" 
	d="
M136.731674,165.310699 
	C135.380707,163.012207 134.211456,161.028275 132.932571,158.858337 
	C136.559525,156.436783 139.802353,153.995850 143.301346,152.005203 
	C147.704346,149.500259 153.338531,152.275345 155.677139,157.808655 
	C157.900558,163.069412 156.056030,168.011322 151.156158,169.741455 
	C150.095947,170.115814 148.934113,170.202423 147.446655,170.494766 
	C149.041794,173.442413 150.517349,176.169067 152.239594,179.351562 
	C150.617203,180.390610 149.172684,181.315720 147.322983,182.500351 
	C143.688812,176.608978 140.301102,171.117142 136.731674,165.310699 
M149.133682,164.831100 
	C149.474472,163.475952 150.507034,161.714828 150.002777,160.855621 
	C149.126816,159.363037 147.409561,157.746658 145.835907,157.496140 
	C144.770294,157.326508 142.337585,159.390732 142.321045,160.483170 
	C142.296600,162.098373 143.613663,164.002686 144.882080,165.254364 
	C145.508896,165.872910 147.304581,165.306976 149.133682,164.831100 
z"/>
<path fill="#FEFBF5" opacity="1.000000" stroke="none" 
	d="
M101.181618,175.588821 
	C99.859474,176.757050 98.465431,177.773560 98.232887,179.008743 
	C97.881554,180.874893 98.340080,182.893524 98.479340,185.272949 
	C96.483009,185.457245 94.748566,185.617371 92.560684,185.819351 
	C92.035965,177.785919 91.542465,170.230484 91.033081,162.431870 
	C92.972191,162.143784 94.558937,161.908035 96.686394,161.591949 
	C97.176918,164.624649 97.635025,167.456955 98.147163,170.623306 
	C100.729820,170.390625 102.992043,170.186813 105.044708,170.001892 
	C108.070786,167.484039 102.214455,159.130890 111.801605,161.047577 
	C112.198898,167.996094 112.715919,174.918915 112.851227,181.849213 
	C112.870018,182.811661 110.999199,184.585251 110.015228,184.576813 
	C109.017471,184.568222 107.292610,182.892731 107.180992,181.813446 
	C106.808533,178.211746 107.165871,174.421432 101.181618,175.588821 
z"/>
<path fill="#FEFBF5" opacity="1.000000" stroke="none" 
	d="
M40.380501,153.375153 
	C42.224331,150.404999 43.880489,147.751572 45.786217,144.698288 
	C47.589691,145.781921 49.059772,146.665222 50.833950,147.731247 
	C48.732586,151.288422 46.870537,154.407639 45.041889,157.546310 
	C43.565441,160.080490 40.996319,162.909653 44.746651,165.277512 
	C48.795403,167.833786 50.230965,164.009369 51.897633,161.453140 
	C53.866486,158.433411 55.683807,155.314896 57.486401,152.370575 
	C62.322014,153.487732 63.089100,155.575012 60.490799,159.160919 
	C58.738979,161.578583 57.381092,164.278198 55.779991,166.809311 
	C52.335537,172.254501 47.470921,173.585175 42.149235,170.590103 
	C36.499779,167.410583 35.206623,162.696426 38.366413,156.669312 
	C38.905815,155.640427 39.580593,154.682541 40.380501,153.375153 
z"/>
<path fill="#FEFBF6" opacity="1.000000" stroke="none" 
	d="
M78.371414,170.944672 
	C77.624138,173.883713 76.982185,176.464294 76.184937,178.995956 
	C74.652367,183.862579 74.615868,183.851089 69.295090,181.389099 
	C70.142075,178.464874 71.368538,175.512787 71.723465,172.459396 
	C71.898613,170.952591 70.464661,169.258728 69.758820,167.649506 
	C68.293724,168.621002 66.192734,169.268250 65.497299,170.632172 
	C64.094543,173.383331 63.456081,176.524185 62.396671,179.834503 
	C60.468868,179.251556 58.937855,178.788589 56.715939,178.116714 
	C58.542259,172.020615 60.277035,166.230118 62.113094,160.101517 
	C66.603714,161.341202 70.915207,161.865112 74.479744,163.779694 
	C76.438339,164.831680 77.138847,168.225922 78.371414,170.944672 
z"/>
<path fill="#FEFBF6" opacity="1.000000" stroke="none" 
	d="
M115.276421,171.785812 
	C116.323074,164.212128 121.016899,160.453659 127.434723,161.630371 
	C132.713791,162.598312 135.942413,167.556656 134.979752,173.217667 
	C134.226669,177.646133 130.342911,180.856171 125.432007,181.109131 
	C120.244957,181.376312 117.322197,178.792587 115.276421,171.785812 
M129.001450,171.474701 
	C127.568924,169.984421 126.136398,168.494141 124.703873,167.003860 
	C123.629684,168.075150 121.543556,169.316727 121.689278,170.182709 
	C122.004974,172.058762 123.462875,173.742615 124.453674,175.505066 
	C125.964569,174.422760 127.475471,173.340454 129.001450,171.474701 
z"/>
<path fill="#FEFAF2" opacity="1.000000" stroke="none" 
	d="
M81.541489,175.372681 
	C82.038223,171.872253 82.422997,168.791031 82.844818,165.413086 
	C84.915764,165.586349 86.513039,165.719971 88.687805,165.901932 
	C88.082115,171.755844 87.771881,177.346207 86.714432,182.791458 
	C86.502449,183.882980 83.445984,184.422119 80.368248,185.822281 
	C80.851143,181.258316 81.140335,178.525085 81.541489,175.372681 
z"/>
<path fill="#FEFAF2" opacity="1.000000" stroke="none" 
	d="
M86.795532,157.700531 
	C87.959702,159.216309 88.762871,160.706818 89.566040,162.197327 
	C88.310623,162.783508 86.939262,163.987656 85.832764,163.780075 
	C84.750816,163.577072 82.973160,161.499313 83.194725,161.007324 
	C83.792679,159.679581 85.292557,158.758026 86.795532,157.700531 
z"/>
<path fill="#F7BB5B" opacity="1.000000" stroke="none" 
	d="
M76.958687,85.542564 
	C76.064880,82.402634 75.490631,79.428879 74.074326,76.932945 
	C64.699501,60.411938 60.135056,42.772217 61.828190,23.794460 
	C62.147385,20.216679 64.291641,16.801725 65.593750,13.311636 
	C68.497459,15.828490 72.244095,17.827126 74.163460,20.949141 
	C84.106079,37.121689 88.561958,54.810287 87.278145,73.844414 
	C87.210876,74.841835 87.105064,75.839729 87.100601,76.837784 
	C87.075531,82.448868 91.038498,86.703316 96.215790,86.653603 
	C101.448334,86.603371 104.976509,82.413651 105.228569,76.747932 
	C105.655884,67.143158 105.383499,57.330639 107.363976,48.022194 
	C109.272751,39.050789 113.469986,30.526581 117.071716,21.978624 
	C118.191223,19.321735 120.440819,17.020290 122.541809,14.926057 
	C125.674515,11.803426 128.076675,12.217354 128.820877,16.590591 
	C130.036682,23.735174 131.247314,31.158144 130.579575,38.287537 
	C129.220764,52.795616 125.298599,66.718918 117.166733,79.179672 
	C113.856766,84.251671 114.986092,87.620560 120.657822,91.732613 
	C134.678024,101.897400 137.538025,117.334167 126.849075,129.154312 
	C123.084450,133.317337 117.868103,136.765182 112.644058,138.894470 
	C99.063095,144.429932 85.487625,143.401642 72.886589,135.657700 
	C55.087608,124.719360 54.474335,104.313713 71.243065,91.963455 
	C73.423485,90.357552 75.021149,87.960411 76.958687,85.542564 
M75.329025,100.425713 
	C74.740570,105.101181 77.973335,112.069290 81.525208,112.664108 
	C87.120407,113.601120 87.817513,108.480881 89.831581,105.119118 
	C90.163467,104.565163 90.564156,103.802757 90.426857,103.266212 
	C90.074921,101.890800 89.438057,100.588310 88.915108,99.256660 
	C87.674980,100.010910 86.222298,100.562202 85.254150,101.576149 
	C84.273674,102.603012 83.772400,104.087425 83.412628,104.737007 
	C80.468346,102.854576 78.176094,101.389015 75.329025,100.425713 
M114.788490,109.234398 
	C115.689911,107.291000 116.935509,105.419739 117.363625,103.377151 
	C117.620285,102.152580 116.599648,100.660301 116.153099,99.288338 
	C114.877022,99.974297 113.351524,100.419571 112.393425,101.412392 
	C111.389748,102.452454 110.930809,104.018196 109.674210,106.426712 
	C108.312256,103.918884 107.677216,102.460022 106.787369,101.178009 
	C105.408943,99.192101 102.236992,98.737213 102.448608,100.891426 
	C102.816498,104.636559 104.694931,108.676720 107.099960,111.657234 
	C109.652779,114.820877 112.390800,112.406746 114.788490,109.234398 
z"/>
<path fill="#FADDAB" opacity="1.000000" stroke="none" 
	d="
M97.039078,65.174644 
	C97.036987,69.112076 97.036987,72.613403 97.036987,76.114723 
	C96.534821,76.102310 96.032654,76.089890 95.530487,76.077477 
	C95.530487,70.995316 95.530487,65.913155 95.530487,60.830997 
	C95.885773,60.803627 96.241058,60.776253 96.596344,60.748878 
	C96.744614,62.078762 96.892891,63.408649 97.039078,65.174644 
z"/>
<path fill="#F8C066" opacity="1.000000" stroke="none" 
	d="
M148.852539,165.054047 
	C147.304581,165.306976 145.508896,165.872910 144.882080,165.254364 
	C143.613663,164.002686 142.296600,162.098373 142.321045,160.483170 
	C142.337585,159.390732 144.770294,157.326508 145.835907,157.496140 
	C147.409561,157.746658 149.126816,159.363037 150.002777,160.855621 
	C150.507034,161.714828 149.474472,163.475952 148.852539,165.054047 
z"/>
<path fill="#F8C066" opacity="1.000000" stroke="none" 
	d="
M128.993912,171.866425 
	C127.475471,173.340454 125.964569,174.422760 124.453674,175.505066 
	C123.462875,173.742615 122.004974,172.058762 121.689278,170.182709 
	C121.543556,169.316727 123.629684,168.075150 124.703873,167.003860 
	C126.136398,168.494141 127.568924,169.984421 128.993912,171.866425 
z"/>
<path fill="#FEFAF3" opacity="1.000000" stroke="none" 
	d="
M75.606430,100.174591 
	C78.176094,101.389015 80.468346,102.854576 83.412628,104.737007 
	C83.772400,104.087425 84.273674,102.603012 85.254150,101.576149 
	C86.222298,100.562202 87.674980,100.010910 88.915108,99.256660 
	C89.438057,100.588310 90.074921,101.890800 90.426857,103.266212 
	C90.564156,103.802757 90.163467,104.565163 89.831581,105.119118 
	C87.817513,108.480881 87.120407,113.601120 81.525208,112.664108 
	C77.973335,112.069290 74.740570,105.101181 75.606430,100.174591 
z"/>
<path fill="#FEFAF4" opacity="1.000000" stroke="none" 
	d="
M114.585205,109.547913 
	C112.390800,112.406746 109.652779,114.820877 107.099960,111.657234 
	C104.694931,108.676720 102.816498,104.636559 102.448608,100.891426 
	C102.236992,98.737213 105.408943,99.192101 106.787369,101.178009 
	C107.677216,102.460022 108.312256,103.918884 109.674210,106.426712 
	C110.930809,104.018196 111.389748,102.452454 112.393425,101.412392 
	C113.351524,100.419571 114.877022,99.974297 116.153091,99.288338 
	C116.599648,100.660301 117.620285,102.152580 117.363625,103.377151 
	C116.935509,105.419739 115.689911,107.291000 114.585205,109.547913 
z"/>
</svg>